PathFileType	4	(X/Y/Z)	C:/Users/opensim2020/Desktop/walking_exp_matlab/subject02_walking07_straight_04.trc	
DataRate	CameraRate	NumFrames	NumMarkers	Units	OrigDataRate	OrigDataStartFrame	OrigNumFrames	
100.00	100.00	6	50	mm	100.00	2772	207	
Frame#	Time	LFHD			RFHD			LBHD			RBHD			C7			T10			CLAV			STRN			RBAK			LSHO			LUPA			LELB			LFRM			LWRA			LWRB			LFIN			RSHO			RUPA			RELB			RFRM			RWRA			RWRB			RFIN			LASI			RASI			LPSI			RPSI			LTHI			LKNE			LTIB			LANK			LHEE			LTOE			RTHI			RKNE			RTIB			RANK			RHEE			RTOE			*39			*40			*41			*42			*43			*44			*45			*46			*47			*48			*49			
		X1	Y1	Z1	X2	Y2	Z2	X3	Y3	Z3	X4	Y4	Z4	X5	Y5	Z5	X6	Y6	Z6	X7	Y7	Z7	X8	Y8	Z8	X9	Y9	Z9	X10	Y10	Z10	X11	Y11	Z11	X12	Y12	Z12	X13	Y13	Z13	X14	Y14	Z14	X15	Y15	Z15	X16	Y16	Z16	X17	Y17	Z17	X18	Y18	Z18	X19	Y19	Z19	X20	Y20	Z20	X21	Y21	Z21	X22	Y22	Z22	X23	Y23	Z23	X24	Y24	Z24	X25	Y25	Z25	X26	Y26	Z26	X27	Y27	Z27	X28	Y28	Z28	X29	Y29	Z29	X30	Y30	Z30	X31	Y31	Z31	X32	Y32	Z32	X33	Y33	Z33	X34	Y34	Z34	X35	Y35	Z35	X36	Y36	Z36	X37	Y37	Z37	X38	Y38	Z38	X39	Y39	Z39	X40	Y40	Z40	X41	Y41	Z41	X42	Y42	Z42	X43	Y43	Z43	X44	Y44	Z44	X45	Y45	Z45	X46	Y46	Z46	X47	Y47	Z47	X48	Y48	Z48	X49	Y49	Z49	X50	Y50	Z50	

52	0.510	-926.90051	246.75607	1715.16077	-1068.75659	267.59616	1700.70898	-902.23602	383.60773	1657.16479	-1041.79395	416.66565	1642.84949	-983.68677	456.23523	1508.58411	-998.17084	494.62680	1230.09229	-975.22284	313.16708	1445.58020	-1001.40735	250.80998	1280.16907	-1056.88696	506.34781	1332.51025	-804.54175	388.29150	1469.74561	-735.40729	434.30850	1270.53882	-735.12012	465.63721	1134.74280	-719.29620	495.44547	1008.60822	-742.52679	477.62335	868.98547	-713.39722	522.53528	887.86359	-714.70990	530.11688	819.60681	-1171.60938	378.81128	1491.36426	-1268.63843	377.01984	1303.02026	-1303.03064	324.67542	1166.42480	-1319.88965	246.60802	1072.87122	-1298.68250	147.78398	983.84937	-1331.74829	186.07753	958.02759	-1335.01843	122.84010	924.38269	-882.43628	239.17276	984.30743	-1135.21899	275.32346	955.02765	-932.28595	460.66281	1020.40057	-1045.70850	479.78186	1012.02588	-807.74744	240.27711	684.23578	-836.98895	218.16888	482.63913	-828.92444	237.28812	288.88455	-862.48376	205.73209	71.47029	-913.46307	241.08986	43.33342	-857.72900	48.35340	35.34443	-1202.62976	423.98450	667.47711	-1193.72144	466.24802	464.94476	-1193.09668	604.78308	336.39230	-1160.19189	724.64130	184.73987	-1097.57898	771.76654	158.52373	-1180.62317	643.94745	40.76540	-1001.91809	349.47812	1795.62280	-3357.17603	2845.96826	1034.09045																											 
53	0.520	-925.35803	238.04298	1716.35962	-1067.38062	258.83887	1701.71802	-900.71356	374.60992	1658.18469	-1040.01013	407.85461	1643.63049	-981.81873	446.83258	1509.46643	-996.10114	484.63657	1230.83398	-973.07263	303.67593	1446.92542	-998.37653	240.50485	1281.61536	-1054.84924	496.36334	1333.19971	-802.39117	378.62418	1471.20361	-732.63043	419.86194	1270.55371	-732.35754	448.50143	1134.12549	-716.52167	475.36011	1007.29938	-741.01257	454.68222	868.12531	-710.67242	499.36111	885.83258	-712.51721	505.67026	817.47583	-1169.53296	368.88284	1492.33301	-1265.63477	368.45114	1303.67322	-1299.60107	317.92462	1166.45459	-1316.36743	241.67523	1071.35071	-1295.19568	144.58104	980.13538	-1328.14636	183.71869	955.12335	-1331.62744	121.04584	920.26312	-878.57196	229.23714	986.67419	-1129.97791	264.32224	955.91895	-929.84875	450.55768	1021.74963	-1044.03882	468.74017	1013.02722	-805.32574	229.62213	685.01453	-835.17920	212.16451	483.10141	-828.53040	234.91667	289.56131	-862.54858	205.47313	71.45103	-913.58850	240.98050	43.40274	-857.87646	47.91604	35.00060	-1200.40906	409.54074	667.10498	-1194.55518	448.04416	464.51605	-1194.67957	589.13446	339.59360	-1160.93896	712.10272	191.13753	-1097.52625	759.56726	167.84474	-1179.57361	641.03516	41.58299	-1000.65436	340.68701	1796.72754	-3357.04150	2845.84424	1034.11340																											 
54	0.530	-924.06476	229.22350	1717.78625	-1065.94678	250.03297	1702.78076	-899.17993	365.71722	1659.46973	-1038.49573	398.91824	1644.62891	-979.85986	437.45724	1510.32141	-994.10059	474.91464	1231.70105	-971.05200	294.12961	1448.27490	-995.73547	230.53680	1282.96692	-1052.91150	485.85538	1333.98865	-800.49823	368.99423	1472.87390	-729.94244	405.43271	1270.88354	-729.43573	430.97238	1133.89734	-713.69324	453.84082	1006.43860	-739.79907	430.91534	867.67181	-707.97992	475.24353	884.35388	-710.18817	480.01669	815.80750	-1167.33752	359.19040	1493.45044	-1262.62683	359.90460	1304.47742	-1296.10364	311.28345	1166.66797	-1313.05017	237.07172	1070.03589	-1291.59180	142.37685	976.37183	-1325.21191	181.39894	952.62958	-1328.19092	119.66953	916.18915	-874.94281	219.74184	989.08575	-1124.97949	253.59402	956.93274	-927.56769	440.64069	1022.84705	-1042.35681	458.22574	1013.94501	-803.04449	220.11385	685.88055	-833.12653	207.19214	483.19070	-828.75568	233.72777	289.62918	-862.64020	205.48566	71.37845	-913.54517	241.42923	43.32545	-857.72845	47.77406	34.75556	-1198.34973	394.71329	666.21252	-1194.83594	429.54453	463.81296	-1195.51147	572.35553	342.06235	-1161.58997	698.74707	197.19957	-1097.73962	746.94684	176.97966	-1178.08179	637.24896	43.28608	-999.44843	332.10983	1797.93213	-3357.26782	2846.09180	1033.95728																											 
55	0.540	-922.68719	220.53589	1719.38245	-1064.51208	241.16988	1703.93481	-897.85040	356.76474	1660.86731	-1037.03894	389.95850	1645.43250	-977.91919	428.14362	1511.17664	-992.06708	465.16611	1232.64807	-969.11682	284.59518	1449.61646	-993.47620	221.82527	1284.13928	-1051.35754	476.90338	1335.21399	-798.68243	359.36578	1474.59985	-727.44952	390.78561	1271.30237	-726.65521	413.35931	1133.89514	-711.19690	432.95572	1005.90308	-738.39276	406.71793	867.91107	-705.16718	450.55234	883.36780	-707.79596	453.57358	814.47595	-1165.18262	349.69812	1494.61011	-1260.05383	351.30075	1305.43506	-1292.77429	304.74927	1167.07129	-1310.05945	232.63426	1068.81152	-1288.43396	139.90851	972.86914	-1322.00183	179.54279	950.08173	-1324.64099	118.63038	911.85889	-871.52795	210.49768	991.44257	-1120.40063	243.22119	957.91785	-925.56348	431.11792	1023.70361	-1040.64905	448.14627	1014.79352	-800.86176	211.96315	686.82971	-831.19696	203.46849	482.95139	-829.12878	233.26941	289.47339	-862.67871	205.51262	71.32224	-913.58795	241.17935	43.38200	-857.83215	47.70215	34.63920	-1196.60901	379.84970	665.09058	-1195.03711	410.74234	463.01712	-1195.87781	554.82959	344.10284	-1161.99292	685.13269	203.46101	-1097.99341	734.13971	185.95444	-1176.25366	630.71075	47.00206	-998.37787	323.60001	1798.96680	-3357.13013	2845.85620	1034.02600																											 
56	0.550	-921.63049	211.64735	1720.93347	-1063.23450	232.34554	1705.13049	-896.32153	348.27194	1662.36597	-1035.77991	380.95206	1646.34167	-975.97034	418.85010	1512.15308	-990.07349	455.67197	1233.75977	-967.33557	275.09879	1450.95410	-991.29913	212.25844	1285.38318	-1049.62122	467.44766	1336.41528	-796.99091	349.77148	1476.35742	-725.33130	375.98801	1271.95300	-723.98352	395.95584	1134.38623	-708.47821	410.73010	1005.36688	-737.25464	381.82300	868.46045	-702.61591	425.01617	882.78918	-705.35107	426.34998	813.71472	-1163.11450	340.48215	1495.72656	-1257.83472	342.86066	1306.37292	-1289.29944	298.32922	1167.25830	-1306.60168	228.32422	1067.46033	-1285.07361	137.90356	969.32013	-1319.40637	177.60901	947.77020	-1320.99548	117.94511	907.38208	-868.04047	201.29308	993.74597	-1116.26880	233.16992	958.81451	-923.61053	421.78104	1024.37756	-1038.83191	438.46756	1015.56598	-798.84833	204.78374	687.57587	-829.40778	200.44376	482.75171	-828.93848	232.89275	289.42068	-862.66583	205.51566	71.17249	-913.55157	241.26151	43.36776	-857.90100	47.68265	34.53331	-1194.75354	364.69177	663.71478	-1194.99963	391.74973	462.43457	-1196.35645	536.98810	346.23303	-1161.91284	670.93402	209.88101	-1097.83679	720.59357	194.88731	-1175.18958	621.92059	51.80210	-997.54095	315.04102	1800.01685	-3360.26416	2845.15161	1034.05237																											 
57	0.560	-920.14526	203.28946	1722.93835	-1062.04321	223.42050	1706.38074	-895.20197	339.29257	1663.65186	-1035.00513	372.16959	1647.34302	-974.11908	409.53708	1513.31177	-988.05389	446.22305	1234.97754	-965.75354	265.74313	1452.36084	-989.28528	202.88525	1286.66516	-1047.77759	458.21350	1337.70190	-795.42340	340.08432	1478.03601	-722.75775	361.87210	1273.16602	-720.90851	378.32465	1134.97351	-706.01453	389.39954	1005.63812	-736.27740	356.31223	869.50861	-700.42365	399.19189	882.37811	-702.90137	398.47409	813.43353	-1161.75232	331.26947	1496.83057	-1255.84009	334.62946	1307.27893	-1285.85193	291.96335	1167.41211	-1303.53259	224.15939	1066.18884	-1281.75806	136.11188	965.44659	-1316.75415	176.01176	945.46796	-1317.64563	117.39036	902.88257	-865.26617	192.74538	995.30640	-1112.88147	223.63487	959.64490	-921.70203	412.75638	1025.02527	-1036.95654	429.13440	1016.37775	-797.06915	198.21121	688.09613	-827.62604	197.52130	482.82880	-827.67426	232.00098	289.63110	-862.60791	205.49255	71.14602	-913.51367	241.38094	43.38302	-858.01910	47.70648	34.48099	-1192.79590	349.50119	662.49017	-1194.68494	372.47620	462.02731	-1196.32019	519.00867	348.80359	-1161.19250	655.83685	215.97693	-1096.94751	705.64301	202.81146	-1175.99963	611.05981	57.03934	-996.68091	306.55460	1801.34412	-3360.35352	2845.27173	1033.89807																											 
